:SAMPLES-PER-SECOND 30
:FULLY-SPECIFIED
:DEGREES
203
root  -12.4383 34.5785 -17.9341 -171.156 0.504074 179.674
RightUpLeg  -7.87593 -13.9689 -0.763051
RightLeg  6.82806 -1.54297 -0.0835465
RightFoot  2.50284 -0.000353098 0.0751115
RightToes  -23.0781 -0.095627 -0.194803
Spine  -2.83148 0.0382568 0.276883
Spine1  -5.75034 0.134331 1.10946
HEad  -61.0507 1.81479 4.47903
LeftShoulder1  -1.94126e-019 -3.10601e-018 -2.51263e-017
LeftArm  -10.8566 25.7548 -82.7667
LeftForeArm  32.6233 -14.0362 -2.25742
LeftHand  -0.28985 -0.524602 5.68095
RightShoulder  -4.96962e-017 0 -2.36833e-017
RightArm  -23.9736 -26.7166 74.9235
RightForeArm  49.9201 16.3728 1.21231
RightHand  -0.297549 -1.26101 -8.25604
LeftUpLeg  -7.39227 -2.59759 1.21858
LeftLeg  6.56565 12.4937 0.623465
LeftFoot  3.42649 0.0135316 0.876717
LeftToes  -17.2401 1.48347e-006 1.01831e-007
204
root  -12.4296 34.5789 -17.943 -171.123 0.35936 179.704
RightUpLeg  -7.90479 -14.0252 -0.709393
RightLeg  6.89825 -1.62135 -0.0898337
RightFoot  2.42883 0.00121702 0.0731583
RightToes  -23.0974 -0.0951148 -0.194094
Spine  -2.83553 0.0239775 0.281526
Spine1  -5.75894 0.105921 1.11546
HEad  -61.0304 1.85888 4.44763
LeftShoulder1  -1.94126e-019 -3.10601e-018 -2.51263e-017
LeftArm  -10.7873 25.6943 -82.7007
LeftForeArm  32.6566 -14.0522 -2.26331
LeftHand  -0.286796 -0.621537 5.74621
RightShoulder  -4.96962e-017 0 -2.36833e-017
RightArm  -23.5605 -26.689 74.6689
RightForeArm  50.056 16.3444 1.20686
RightHand  -0.298788 -1.16179 -8.11303
LeftUpLeg  -7.43422 -2.86489 1.30103
LeftLeg  6.56471 12.5712 0.627066
LeftFoot  3.54946 0.00917548 0.907306
LeftToes  -17.4074 1.48347e-006 1.01831e-007
205
root  -12.4068 34.5836 -17.9396 -171.029 0.149536 179.801
RightUpLeg  -8.04331 -14.2476 -0.535124
RightLeg  7.0278 -1.61244 -0.0929887
RightFoot  2.35859 0.00287253 0.0708614
RightToes  -23.0121 -0.0946034 -0.193415
Spine  -2.84986 0.00992826 0.31582
Spine1  -5.78734 0.0799691 1.18064
HEad  -61.088 1.86404 4.40383
LeftShoulder1  -1.94126e-019 -3.10601e-018 -2.51263e-017
LeftArm  -10.7495 25.6286 -82.6563
LeftForeArm  32.6663 -14.1727 -2.28387
LeftHand  -0.284838 -0.573995 5.68667
RightShoulder  -4.96962e-017 0 -2.36833e-017
RightArm  -22.9593 -26.5415 74.2793
RightForeArm  50.0812 16.1611 1.20315
RightHand  -0.295388 -1.17149 -8.03633
LeftUpLeg  -7.55784 -2.79013 1.47675
LeftLeg  6.51846 12.2784 0.602818
LeftFoot  3.77501 0.00479936 0.935262
LeftToes  -17.7589 1.48347e-006 1.01831e-007
206
root  -12.3597 34.5942 -17.9253 -170.985 -0.0605927 179.845
RightUpLeg  -8.14618 -14.2842 -0.38535
RightLeg  7.16012 -1.78089 -0.106936
RightFoot  2.2699 0.00476412 0.0660804
RightToes  -23.0172 -0.0940956 -0.192772
Spine  -2.84088 0.0299941 0.324639
Spine1  -5.76907 0.122899 1.193
HEad  -61.0427 1.7151 4.38172
LeftShoulder1  -1.94126e-019 -3.10601e-018 -2.51263e-017
LeftArm  -10.6844 25.4533 -82.5381
LeftForeArm  32.671 -14.2647 -2.30707
LeftHand  -0.28299 -0.589323 5.64653
RightShoulder  -4.96962e-017 0 -2.36833e-017
RightArm  -22.4742 -26.2234 73.7643
RightForeArm  50.1325 15.795 1.20666
RightHand  -0.294271 -1.02315 -7.74958
LeftUpLeg  -7.60841 -2.7395 1.6479
LeftLeg  6.38311 11.9566 0.559145
LeftFoot  4.08422 -0.000623082 0.976475
LeftToes  -18.0824 1.48347e-006 1.01831e-007
207
root  -12.2751 34.6109 -17.8893 -170.964 -0.281219 179.892
RightUpLeg  -8.27859 -14.2323 -0.159511
RightLeg  7.3307 -2.05104 -0.129438
RightFoot  2.11024 0.00670942 0.0614335
RightToes  -22.7377 -0.0935945 -0.192173
Spine  -2.79669 0.065582 0.308941
Spine1  -5.68203 0.206495 1.14969
HEad  -61.0636 1.51106 4.49649
LeftShoulder1  -1.94126e-019 -3.10601e-018 -2.51263e-017
LeftArm  -10.4718 25.1852 -82.2454
LeftForeArm  32.6583 -14.4495 -2.34508
LeftHand  -0.280839 -0.679875 5.68287
RightShoulder  -4.96962e-017 0 -2.36833e-017
RightArm  -21.1641 -25.3329 72.952
RightForeArm  50.3557 15.1994 1.23303
RightHand  -0.279785 -0.731714 -6.93219
LeftUpLeg  -7.6677 -2.8319 1.87831
LeftLeg  6.23121 11.7782 0.519856
LeftFoot  4.47199 -0.00784384 1.04257
LeftToes  -18.5943 1.48347e-006 1.01831e-007
208
root  -12.1465 34.6451 -17.8431 -171.057 -0.489944 179.911
RightUpLeg  -8.16148 -14.0348 0.0768921
RightLeg  7.19672 -2.45339 -0.149259
RightFoot  2.05392 0.00902256 0.0524444
RightToes  -22.2302 -0.0931027 -0.191626
Spine  -2.7025 0.130983 0.250489
Spine1  -5.49497 0.361127 1.02408
HEad  -61.1381 1.21001 4.72677
LeftShoulder1  -1.94126e-019 -3.10601e-018 -2.51263e-017
LeftArm  -10.0991 24.7781 -81.7964
LeftForeArm  32.619 -14.6155 -2.37484
LeftHand  -0.280447 -0.624264 5.63298
RightShoulder  -4.96962e-017 0 -2.36833e-017
RightArm  -20.2504 -23.9921 71.8269
RightForeArm  50.2827 15.0749 1.24478
RightHand  -0.230486 0.213145 -4.82632
LeftUpLeg  -8.02162 -3.15616 2.1293
LeftLeg  6.88299 11.9015 0.659886
LeftFoot  4.53585 -0.012737 1.06934
LeftToes  -18.8478 1.48347e-006 1.01831e-007
209
root  -11.9713 34.7004 -17.7849 -171.119 -0.614746 -179.997
RightUpLeg  -7.76388 -13.7855 0.470306
RightLeg  6.34937 -2.82456 -0.130121
RightFoot  2.39118 0.012337 0.030073
RightToes  -21.8004 -0.0926235 -0.191138
Spine  -2.62268 0.223514 0.136356
Spine1  -5.32948 0.570317 0.820301
HEad  -61.1416 0.881561 5.10737
LeftShoulder1  -1.94126e-019 -3.10601e-018 -2.51263e-017
LeftArm  -9.64409 24.2856 -81.1151
LeftForeArm  32.5805 -14.7028 -2.39523
LeftHand  -0.281678 -0.677146 5.60687
RightShoulder  -4.96962e-017 0 -2.36833e-017
RightArm  -18.0356 -22.2952 70.3233
RightForeArm  47.2166 16.0532 1.298
RightHand  -0.155948 0.121692 -3.31881
LeftUpLeg  -8.27092 -3.20658 2.52456
LeftLeg  7.23244 11.8172 0.727025
LeftFoot  4.8055 -0.0199862 1.12954
LeftToes  -19.5929 1.48347e-006 1.01831e-007
210
root  -11.7546 34.786 -17.7126 -171.206 -0.450211 -179.842
RightUpLeg  -6.92173 -13.733 0.969785
RightLeg  4.53324 -2.66084 -0.0382827
RightFoot  3.18312 0.0153695 0.0126708
RightToes  -21.1649 -0.0921595 -0.190506
Spine  -2.59102 0.276111 -0.0506232
Spine1  -5.23708 0.647782 0.562617
HEad  -60.9678 0.721191 5.6544
LeftShoulder1  -1.94126e-019 -3.10601e-018 -2.51263e-017
LeftArm  -9.60485 23.9242 -80.293
LeftForeArm  32.6802 -14.5853 -2.37468
LeftHand  -0.286897 -0.818052 5.48135
RightShoulder  -4.96962e-017 0 -2.36833e-017
RightArm  -14.333 -20.3945 67.8959
RightForeArm  43.8291 20.3843 2.1391
RightHand  -0.0907801 -0.334892 -2.05879
LeftUpLeg  -8.17583 -2.99193 3.02219
LeftLeg  6.97003 11.7567 0.669735
LeftFoot  5.34929 -0.0319398 1.25959
LeftToes  -20.1049 1.48347e-006 1.01831e-007
211
root  -11.4732 34.8033 -17.6349 -171.343 -0.0711975 -179.608
RightUpLeg  -6.50485 -13.9334 1.61541
RightLeg  3.62454 -1.99376 0.00301372
RightFoot  3.58114 0.0155985 0.0362787
RightToes  -21.1403 -0.0917137 -0.189635
Spine  -2.54977 0.347279 -0.131593
Spine1  -5.14726 0.785072 0.42962
HEad  -60.5468 0.947347 6.20158
LeftShoulder1  -1.94126e-019 -3.10601e-018 -2.51263e-017
LeftArm  -10.0449 23.8473 -79.5006
LeftForeArm  32.8715 -14.9362 -2.44027
LeftHand  -0.292295 -0.74787 5.64039
RightShoulder  -4.96962e-017 0 -2.36833e-017
RightArm  -8.71369 -18.8964 63.6451
RightForeArm  39.2857 32.5402 4.93453
RightHand  -0.0641555 -1.24463 -1.62619
LeftUpLeg  -8.79316 -2.44496 3.67497
LeftLeg  8.35417 11.5881 0.939403
LeftFoot  5.17167 -0.032918 1.2157
LeftToes  -21.0146 1.48347e-006 1.01831e-007
212
root  -11.1325 34.8071 -17.5445 -171.461 0.36792 -179.256
RightUpLeg  -5.98553 -14.3137 2.47923
RightLeg  2.43131 -1.10037 0.0247188
RightFoot  4.1578 0.0164351 0.07961
RightToes  -20.9492 -0.0912891 -0.188697
Spine  -2.57083 0.272714 -0.177466
Spine1  -5.16662 0.602429 0.40264
HEad  -59.8641 1.43916 6.80035
LeftShoulder1  -1.94126e-019 -3.10601e-018 -2.51263e-017
LeftArm  -10.3918 24.1399 -78.6408
LeftForeArm  32.6433 -15.4906 -2.53649
LeftHand  -0.271398 -0.436494 5.49423
RightShoulder  -4.96962e-017 0 -2.36833e-017
RightArm  -2.56269 -16.2286 57.7791
RightForeArm  35.4445 47.5332 9.64641
RightHand  -0.0581628 -2.72327 -1.93512
LeftUpLeg  -9.72992 -2.12221 4.53252
LeftLeg  10.3746 11.6989 1.36161
LeftFoot  4.69779 -0.0319556 1.13825
LeftToes  -21.6098 1.48347e-006 1.01831e-007
213
root  -10.7689 34.7795 -17.4332 -171.481 0.727783 -178.798
RightUpLeg  -5.46513 -14.9107 3.53409
RightLeg  1.01401 -0.0833367 0.00417246
RightFoot  4.70905 0.0151019 0.147653
RightToes  -20.8801 -0.0908886 -0.187863
Spine  -2.65595 0.125583 -0.187824
Spine1  -5.30097 0.235051 0.468795
HEad  -59.1045 1.80598 7.28281
LeftShoulder1  -1.94126e-019 -3.10601e-018 -2.51263e-017
LeftArm  -10.205 24.5119 -77.7772
LeftForeArm  32.7327 -15.9693 -2.64432
LeftHand  -0.273806 -0.460859 5.52167
RightShoulder  -4.96962e-017 0 -2.36833e-017
RightArm  1.65173 -12.3065 50.7982
RightForeArm  40.671 64.3706 19.5687
RightHand  -0.0629071 -3.00612 -2.33588
LeftUpLeg  -11.368 -2.52307 5.51091
LeftLeg  13.6312 12.5052 2.17331
LeftFoot  3.47512 -0.0237668 0.945012
LeftToes  -21.1391 1.48347e-006 1.01831e-007
214
root  -10.4248 34.7258 -17.3172 -171.451 0.943817 -178.199
RightUpLeg  -5.08349 -15.1107 4.72344
RightLeg  -0.163215 0.393337 -0.0265051
RightFoot  5.0414 0.0150603 0.184693
RightToes  -20.4883 -0.090515 -0.187302
Spine  -2.75022 0.0449297 -0.164782
Spine1  -5.45297 -0.006238 0.629104
HEad  -58.4778 1.84088 7.44905
LeftShoulder1  -1.94126e-019 -3.10601e-018 -2.51263e-017
LeftArm  -9.58112 24.6886 -77.0543
LeftForeArm  33.4907 -16.4851 -2.78262
LeftHand  -0.284063 -0.67716 5.5415
RightShoulder  -4.96962e-017 0 -2.36833e-017
RightArm  1.37594 -7.64905 43.4145
RightForeArm  75.3103 79.0787 58.8276
RightHand  -0.0774598 -3.4118 -3.59525
LeftUpLeg  -13.5308 -3.37058 6.51746
LeftLeg  17.9432 13.9219 3.49708
LeftFoot  1.31379 -0.00386335 0.498533
LeftToes  -18.3523 1.48347e-006 1.01831e-007
215
root  -10.1471 34.6804 -17.2429 -171.727 1.17784 -177.787
RightUpLeg  -4.67115 -15.5445 5.50606
RightLeg  -0.633561 1.10936 -0.0839457
RightFoot  5.13178 0.0123939 0.242708
RightToes  -20.6779 -0.0901713 -0.187185
Spine  -2.70756 0.180283 -0.188747
Spine1  -5.33803 0.191406 0.642049
HEad  -58.4457 1.51226 7.54983
LeftShoulder1  -1.94126e-019 -3.10601e-018 -2.51263e-017
LeftArm  -9.30027 24.3425 -76.7119
LeftForeArm  34.8183 -16.6902 -2.87572
LeftHand  -0.298946 -0.701815 5.8063
RightShoulder  -4.96962e-017 0 -2.36833e-017
RightArm  -4.90471 -2.88565 36.5551
RightForeArm  151.606 74.8293 141.291
RightHand  -0.104697 -3.04276 -4.49604
LeftUpLeg  -15.2585 -2.89041 6.51011
LeftLeg  22.8367 17.8117 6.06186
LeftFoot  -0.85749 -0.00219282 -0.131498
LeftToes  -16.6396 1.48347e-006 1.01831e-007
